<svg id="visual" viewBox="0 0 960 540" width="960" height="540" xmlns="http://www.w3.org/2000/svg" xmlns:xlink="http://www.w3.org/1999/xlink" version="1.1"><rect x="0" y="0" width="960" height="540" fill="#222831"></rect><defs><linearGradient id="grad1_0" x1="43.8%" y1="0%" x2="100%" y2="100%"><stop offset="14.444444444444446%" stop-color="#00adb5" stop-opacity="1"></stop><stop offset="85.55555555555554%" stop-color="#00adb5" stop-opacity="1"></stop></linearGradient></defs><defs><linearGradient id="grad1_1" x1="43.8%" y1="0%" x2="100%" y2="100%"><stop offset="14.444444444444446%" stop-color="#00adb5" stop-opacity="1"></stop><stop offset="85.55555555555554%" stop-color="#2a657b" stop-opacity="1"></stop></linearGradient></defs><defs><linearGradient id="grad1_2" x1="43.8%" y1="0%" x2="100%" y2="100%"><stop offset="14.444444444444446%" stop-color="#222831" stop-opacity="1"></stop><stop offset="85.55555555555554%" stop-color="#2a657b" stop-opacity="1"></stop></linearGradient></defs><defs><linearGradient id="grad2_0" x1="0%" y1="0%" x2="56.3%" y2="100%"><stop offset="14.444444444444446%" stop-color="#00adb5" stop-opacity="1"></stop><stop offset="85.55555555555554%" stop-color="#00adb5" stop-opacity="1"></stop></linearGradient></defs><defs><linearGradient id="grad2_1" x1="0%" y1="0%" x2="56.3%" y2="100%"><stop offset="14.444444444444446%" stop-color="#2a657b" stop-opacity="1"></stop><stop offset="85.55555555555554%" stop-color="#00adb5" stop-opacity="1"></stop></linearGradient></defs><defs><linearGradient id="grad2_2" x1="0%" y1="0%" x2="56.3%" y2="100%"><stop offset="14.444444444444446%" stop-color="#2a657b" stop-opacity="1"></stop><stop offset="85.55555555555554%" stop-color="#222831" stop-opacity="1"></stop></linearGradient></defs><g transform="translate(960, 0)"><path d="M0 297C-33.6 297.6 -67.1 298.3 -91.8 282.5C-116.4 266.6 -132.2 234.3 -154.6 212.8C-177 191.2 -205.9 180.5 -219.2 159.3C-232.6 138.1 -230.3 106.5 -240.6 78.2C-251 49.9 -274 24.9 -297 0L0 0Z" fill="#2c4557"></path><path d="M0 198C-22.4 198.4 -44.7 198.9 -61.2 188.3C-77.6 177.8 -88.1 156.2 -103.1 141.8C-118 127.5 -137.3 120.3 -146.2 106.2C-155 92.1 -153.5 71 -160.4 52.1C-167.3 33.3 -182.7 16.6 -198 0L0 0Z" fill="#1a889c"></path><path d="M0 99C-11.2 99.2 -22.4 99.4 -30.6 94.2C-38.8 88.9 -44.1 78.1 -51.5 70.9C-59 63.7 -68.6 60.2 -73.1 53.1C-77.5 46 -76.8 35.5 -80.2 26.1C-83.7 16.6 -91.3 8.3 -99 0L0 0Z" fill="#00adb5"></path></g><g transform="translate(0, 540)"><path d="M0 -297C29.8 -291.7 59.7 -286.4 90.2 -277.7C120.8 -269.1 152.1 -257.1 170.5 -234.6C188.8 -212.1 194.2 -179.2 213.6 -155.2C232.9 -131.2 266.2 -116.1 282.5 -91.8C298.7 -67.4 297.8 -33.7 297 0L0 0Z" fill="#2c4557"></path><path d="M0 -198C19.9 -194.5 39.8 -190.9 60.2 -185.1C80.5 -179.4 101.4 -171.4 113.6 -156.4C125.9 -141.4 129.5 -119.4 142.4 -103.5C155.3 -87.5 177.5 -77.4 188.3 -61.2C199.1 -44.9 198.6 -22.5 198 0L0 0Z" fill="#1a889c"></path><path d="M0 -99C9.9 -97.2 19.9 -95.5 30.1 -92.6C40.3 -89.7 50.7 -85.7 56.8 -78.2C62.9 -70.7 64.7 -59.7 71.2 -51.7C77.6 -43.7 88.7 -38.7 94.2 -30.6C99.6 -22.5 99.3 -11.2 99 0L0 0Z" fill="#00adb5"></path></g></svg>